# xmcd
# 
# Track frame offsets:
#     150
#     24130
#     60745
#     90488
#     126038
#     172100
# 
# Disc length: 2594
# 
# Revision: 4
# Processed by: cddbd v1.5.2PL0 Copyright (c) Steve Scherf et al.
# Submitted via: fre:ac v1.1beta1pre5
# 
DISCID=420a2006
DTITLE=Luther Allison - Sweet Home Chicago - Charly Blues Masterworks Vol. 37
DYEAR=1993
DGENRE=Blues
TTITLE0=Dust My Broom
TTITLE1=I Got Worries
TTITLE2=You Don't Love Me
TTITLE3=Goin' Down
TTITLE4=I'm Gonna Leave You Alone
TTITLE5=Sweet Home Chicago
EXTD=Charly R&B\n(c) 1993\n\nOriginally recorded in Chicago, 1976 YEAR: 1993
EXTT0=
EXTT1=
EXTT2=
EXTT3=
EXTT4=
EXTT5=
PLAYORDER=
